<?xml version="1.0" encoding="UTF-8"?>
<svg width="100" height="32" viewBox="0 0 100 32" fill="none" xmlns="http://www.w3.org/2000/svg">
  <path d="M95.5 0H4.5C2 0 0 2 0 4.5V27.5C0 30 2 32 4.5 32H95.5C98 32 100 30 100 27.5V4.5C100 2 98 0 95.5 0Z" fill="#006FCF"/>
  <path d="M50.5 16L53.5 8H58L52.5 21H48.5L43 8H47.5L50.5 16ZM66.5 8H74V11H67.5V13H73.5V16H67.5V18H74V21H66.5V8ZM33.5 8H27V21H33.5C37.5 21 40 18.5 40 14.5C40 10.5 37.5 8 33.5 8ZM33 18H31V11H33C35 11 36 12.5 36 14.5C36 16.5 35 18 33 18Z" fill="white"/>
</svg>