<?xml version="1.0" encoding="UTF-8"?>
<svg width="100" height="32" viewBox="0 0 100 32" fill="none" xmlns="http://www.w3.org/2000/svg">
  <path d="M95.5 0H4.5C2 0 0 2 0 4.5V27.5C0 30 2 32 4.5 32H95.5C98 32 100 30 100 27.5V4.5C100 2 98 0 95.5 0Z" fill="#4D4D4D"/>
  <path d="M54 16C54 19.9 50.9 23 47 23C43.1 23 40 19.9 40 16C40 12.1 43.1 9 47 9C50.9 9 54 12.1 54 16Z" fill="#FF6B00"/>
  <path d="M60 8H56V21H60V8ZM67 8H63V21H67V8ZM74 8H70V21H74V8ZM33 8H27V21H33C37 21 40 18.5 40 14.5C40 10.5 37 8 33 8ZM32.5 18H30.5V11H32.5C34.5 11 35.5 12.5 35.5 14.5C35.5 16.5 34.5 18 32.5 18Z" fill="white"/>
</svg>