<?xml version="1.0" encoding="UTF-8"?>
<svg width="100" height="32" viewBox="0 0 100 32" fill="none" xmlns="http://www.w3.org/2000/svg">
  <path d="M50 25.6C45.6 23.2 42.8 18.4 42.8 13C42.8 7.6 45.6 2.8 50 0.4C45.2 -1.2 39.6 0.4 36 4C32.4 7.6 30.8 13.2 32.4 18C34 22.8 38 26.8 42.8 28.4C47.6 30 52.8 28.8 56.4 25.2C60 21.6 61.6 16 60 11.2C58.4 6.4 54.4 2.4 49.6 0.8C49.6 0.8 49.6 25.6 50 25.6Z" fill="#EA001B"/>
  <path d="M67.2 0.4C62.8 2.8 60 7.6 60 13C60 18.4 62.8 23.2 67.2 25.6C71.6 23.2 74.4 18.4 74.4 13C74.4 7.6 71.6 2.8 67.2 0.4Z" fill="#FFA200"/>
  <path d="M67.2 25.6C71.6 23.2 74.4 18.4 74.4 13C74.4 7.6 71.6 2.8 67.2 0.4C72 -1.2 77.6 0.4 81.2 4C84.8 7.6 86.4 13.2 84.8 18C83.2 22.8 79.2 26.8 74.4 28.4C69.6 30 64.4 28.8 60.8 25.2C57.2 21.6 55.6 16 57.2 11.2C58.8 6.4 62.8 2.4 67.6 0.8C67.6 0.8 67.2 25.6 67.2 25.6Z" fill="#FF5F00"/>
</svg>