<?xml version="1.0" encoding="UTF-8"?>
<svg width="100" height="32" viewBox="0 0 100 32" fill="none" xmlns="http://www.w3.org/2000/svg">
  <path d="M41.42 8.7L34.72 23.3H31L27.7 11.5C27.5 10.8 27.3 10.5 26.6 10.2C25.4 9.7 23.5 9.2 21.8 8.9L21.9 8.7H27.5C28.3 8.7 29 9.2 29.2 10.1L31 18.2L35.3 8.7H41.42ZM61.8 18.2C61.8 14.3 56.4 14 56.4 12.4C56.4 11.8 57 11.5 58 11.5C59.6 11.5 61 11.8 62.1 12.2L62.8 9C61.7 8.7 60.2 8.4 58.5 8.4C53.5 8.4 50.2 10.8 50.2 14.2C50.2 16.8 52.7 18.2 54.6 19C56.6 19.8 57.2 20.3 57.2 21C57.2 22 56.1 22.5 55 22.5C53.1 22.5 51.4 22 50 21.4L49.3 24.7C50.7 25.3 52.9 25.8 55.2 25.8C60.5 25.8 63.7 23.4 63.7 19.8C63.7 16.5 61.8 15.2 61.8 18.2ZM78.3 23.3H83.7L79.3 8.7H75.3C74.6 8.7 74 9.1 73.7 9.8L66.3 23.3H72L73 20.8H78L78.3 23.3ZM74.2 17.6L76.3 12.2L77.5 17.6H74.2ZM47.8 8.7L43.3 23.3H38.2L42.7 8.7H47.8Z" fill="#1434CB"/>
</svg>